<svg width="80" height="84" viewBox="0 0 114 84" fill="none" xmlns="http://www.w3.org/2000/svg">
<path d="M107.16 0H25.08C23.2659 0 21.5261 0.63214 20.2434 1.75736C18.9606 2.88258 18.24 4.4087 18.24 6V16H6.84C5.02592 16 3.28614 16.6321 2.00339 17.7574C0.720641 18.8826 0 20.4087 0 22V78C0 79.5913 0.720641 81.1174 2.00339 82.2426C3.28614 83.3679 5.02592 84 6.84 84H88.92C90.7341 84 92.4739 83.3679 93.7566 82.2426C95.0394 81.1174 95.76 79.5913 95.76 78V68H107.16C108.974 68 110.714 67.3679 111.997 66.2426C113.279 65.1174 114 63.5913 114 62V6C114 4.4087 113.279 2.88258 111.997 1.75736C110.714 0.63214 108.974 0 107.16 0ZM22.8 6C22.8 5.46957 23.0402 4.96086 23.4678 4.58579C23.8954 4.21071 24.4753 4 25.08 4H107.16C107.765 4 108.345 4.21071 108.772 4.58579C109.2 4.96086 109.44 5.46957 109.44 6V42.2L99.8127 33.755C99.1772 33.1956 98.4221 32.7518 97.5907 32.449C96.7593 32.1462 95.8679 31.9903 94.9677 31.9903C94.0675 31.9903 93.1761 32.1462 92.3447 32.449C91.5132 32.7518 90.7582 33.1956 90.1227 33.755L77.1096 45.17L50.4393 21.755C49.8038 21.1956 49.0488 20.7518 48.2173 20.449C47.3859 20.1462 46.4945 19.9903 45.5943 19.9903C44.6941 19.9903 43.8027 20.1462 42.9713 20.449C42.1398 20.7518 41.3848 21.1956 40.7493 21.755L22.8 37.5V6ZM91.2 78C91.2 78.5304 90.9598 79.0391 90.5322 79.4142C90.1046 79.7893 89.5247 80 88.92 80H6.84C6.23531 80 5.65538 79.7893 5.2278 79.4142C4.80021 79.0391 4.56 78.5304 4.56 78V22C4.56 21.4696 4.80021 20.9609 5.2278 20.5858C5.65538 20.2107 6.23531 20 6.84 20H18.24V62C18.24 63.5913 18.9606 65.1174 20.2434 66.2426C21.5261 67.3679 23.2659 68 25.08 68H91.2V78ZM107.16 64H25.08C24.4753 64 23.8954 63.7893 23.4678 63.4142C23.0402 63.0391 22.8 62.5304 22.8 62V43.17L43.9869 24.585C44.1987 24.399 44.4501 24.2515 44.7269 24.1509C45.0037 24.0502 45.3004 23.9984 45.6 23.9984C45.8996 23.9984 46.1963 24.0502 46.4731 24.1509C46.7499 24.2515 47.0014 24.399 47.2131 24.585L75.5193 49.415C75.9467 49.789 76.5258 49.9991 77.1295 49.9991C77.7333 49.9991 78.3124 49.789 78.7398 49.415L93.366 36.585C93.5778 36.399 93.8292 36.2515 94.106 36.1509C94.3828 36.0502 94.6795 35.9984 94.9791 35.9984C95.2787 35.9984 95.5754 36.0502 95.8522 36.1509C96.129 36.2515 96.3805 36.399 96.5922 36.585L109.44 47.855V62C109.44 62.5304 109.2 63.0391 108.772 63.4142C108.345 63.7893 107.765 64 107.16 64ZM77.52 20C77.52 19.2089 77.7874 18.4355 78.2885 17.7777C78.7896 17.1199 79.5017 16.6072 80.335 16.3045C81.1682 16.0017 82.0851 15.9225 82.9696 16.0769C83.8542 16.2312 84.6667 16.6122 85.3044 17.1716C85.9421 17.731 86.3764 18.4437 86.5524 19.2196C86.7283 19.9956 86.638 20.7998 86.2929 21.5307C85.9478 22.2616 85.3633 22.8864 84.6134 23.3259C83.8635 23.7654 82.9819 24 82.08 24C80.8706 24 79.7108 23.5786 78.8556 22.8284C78.0004 22.0783 77.52 21.0609 77.52 20Z" fill="#777777"/>
</svg>
