<svg width="26" height="26" viewBox="0 0 26 26" fill="none" xmlns="http://www.w3.org/2000/svg">
<path d="M21.071 4.39836H16.5427V3.85669C16.5427 3.42571 16.3715 3.01239 16.0667 2.70764C15.762 2.40289 15.3487 2.23169 14.9177 2.23169H11.0827C10.6517 2.23169 10.2384 2.40289 9.93365 2.70764C9.6289 3.01239 9.45769 3.42571 9.45769 3.85669V4.39836H4.92936C4.7857 4.39836 4.64793 4.45542 4.54635 4.55701C4.44476 4.65859 4.3877 4.79636 4.3877 4.94002C4.3877 5.08368 4.44476 5.22146 4.54635 5.32304C4.64793 5.42462 4.7857 5.48169 4.92936 5.48169H5.70936L6.16436 21.1359C6.1822 21.8416 6.47563 22.5122 6.98184 23.0043C7.48804 23.4963 8.16677 23.7706 8.87269 23.7684H17.1277C17.8336 23.7706 18.5124 23.4963 19.0186 23.0043C19.5248 22.5122 19.8182 21.8416 19.836 21.1359L20.291 5.48169H21.071C21.2147 5.48169 21.3525 5.42462 21.454 5.32304C21.5556 5.22146 21.6127 5.08368 21.6127 4.94002C21.6127 4.79636 21.5556 4.65859 21.454 4.55701C21.3525 4.45542 21.2147 4.39836 21.071 4.39836ZM10.541 3.85669C10.541 3.71303 10.5981 3.57526 10.6997 3.47367C10.8013 3.37209 10.939 3.31502 11.0827 3.31502H14.9177C15.0614 3.31502 15.1991 3.37209 15.3007 3.47367C15.4023 3.57526 15.4594 3.71303 15.4594 3.85669V4.39836H10.541V3.85669ZM18.7527 21.1034C18.7414 21.5268 18.5652 21.9291 18.2617 22.2245C17.9582 22.5199 17.5513 22.6852 17.1277 22.685H8.87269C8.44912 22.6852 8.04223 22.5199 7.7387 22.2245C7.43517 21.9291 7.25899 21.5268 7.2477 21.1034L6.78186 5.48169H19.2185L18.7527 21.1034Z" fill="#777777"/>
<path d="M9.07324 8.66667C9.07324 8.52301 9.13031 8.38523 9.23189 8.28365C9.33347 8.18207 9.47125 8.125 9.61491 8.125C9.75857 8.125 9.89634 8.18207 9.99793 8.28365C10.0995 8.38523 10.1566 8.52301 10.1566 8.66667L10.4274 19.5C10.4274 19.6437 10.3703 19.7814 10.2688 19.883C10.1672 19.9846 10.0294 20.0417 9.88574 20.0417C9.74208 20.0417 9.60431 19.9846 9.50273 19.883C9.40114 19.7814 9.34408 19.6437 9.34408 19.5L9.07324 8.66667ZM16.9274 8.67425C16.9274 8.53059 16.8703 8.39282 16.7688 8.29123C16.6672 8.18965 16.5294 8.13258 16.3857 8.13258C16.2421 8.13258 16.1043 8.18965 16.0027 8.29123C15.9011 8.39282 15.8441 8.53059 15.8441 8.67425L15.5732 19.5076C15.5732 19.6512 15.6303 19.789 15.7319 19.8906C15.8335 19.9922 15.9712 20.0492 16.1149 20.0492C16.2586 20.0492 16.3963 19.9922 16.4979 19.8906C16.5995 19.789 16.6566 19.6512 16.6566 19.5076L16.9274 8.67425Z" fill="#777777"/>
</svg>
